<?xml version="1.0" encoding="utf-8"?>
<!-- Svg Vector Icons : http://www.onlinewebfonts.com/icon -->
<!DOCTYPE svg PUBLIC "-//W3C//DTD SVG 1.1//EN" "http://www.w3.org/Graphics/SVG/1.1/DTD/svg11.dtd">
<svg version="1.1" xmlns="http://www.w3.org/2000/svg" xmlns:xlink="http://www.w3.org/1999/xlink" x="0px" y="0px" viewBox="0 0 1000 1000" enable-background="new 0 0 1000 1000" xml:space="preserve">
<metadata> Svg Vector Icons : http://www.onlinewebfonts.com/icon </metadata>
<g><path d="M500,939.7l-18.1-18.1c-23.2-23.2-43.8-38.7-87.7-72.2c-25.8-20.6-59.3-43.8-103.2-79.9C169.9,676.7,10,547.7,10,364.6C10,178.9,157,62.9,293.7,62.9c79.9,0,152.2,36.1,206.3,100.6C554.2,96.4,626.4,60.3,706.3,60.3C843,60.3,990,173.8,990,359.4c0,193.4-183.1,332.7-281.1,407.5l-59.3,46.4c-74.8,56.7-100.6,77.4-131.5,108.3L500,939.7z M293.7,114.4c-110.9,0-232.1,95.4-232.1,250.2C61.6,521.9,206,638,322.1,728.2c46.4,36.1,77.4,61.9,103.2,79.9c33.5,25.8,54.2,41.3,74.8,59.3c25.8-25.8,56.7-46.4,118.6-95.4l59.3-46.4c126.4-95.4,260.5-211.5,260.5-366.2c0-152.2-121.2-247.6-232.1-247.6c-72.2,0-136.7,38.7-183.1,108.3l-20.6,30.9l-20.6-30.9C430.4,153.1,365.9,114.4,293.7,114.4z"/></g>
</svg>